<svg width="157" height="65" viewBox="0 0 157 65" fill="none" xmlns="http://www.w3.org/2000/svg">
<path d="M98.9648 5.79086H108.029V37.011H112.309V5.79086H121.373V1.76245H98.9648V5.79086Z" fill="#0D2DA2"/>
<path d="M93.6768 13.8475H89.6484V37.0109H93.6768V13.8475ZM100.676 18.2788L102.892 14.9554C102.288 14.3175 101.616 13.8979 100.878 13.6965C100.173 13.4615 99.4005 13.344 98.5613 13.344C97.487 13.344 96.4296 13.7636 95.3889 14.6029C94.3482 15.4421 93.4922 16.5835 92.8208 18.027C92.183 19.437 91.8641 21.0651 91.8641 22.9115H93.6768C93.6768 21.8036 93.7776 20.8133 93.979 19.9405C94.214 19.0677 94.6168 18.3795 95.1875 17.876C95.7582 17.3724 96.5471 17.1206 97.5542 17.1206C98.2256 17.1206 98.7795 17.2213 99.2159 17.4228C99.6523 17.5906 100.139 17.876 100.676 18.2788Z" fill="#0D2DA2"/>
<path d="M64.5723 26.4364H83.2037L81.693 22.408H66.0829L64.5723 26.4364ZM73.7873 9.71853L79.8299 23.9187L80.2327 24.9258L85.3689 37.011H90.1527L73.7873 0L57.4219 37.011H62.2056L67.4425 24.6236L67.8454 23.7172L73.7873 9.71853Z" fill="#0D2DA2"/>
<path d="M29.9943 13.193L41.4753 33.7379L52.9563 13.193L55.5747 37.011H59.8549L55.5747 0L41.4753 25.53L27.3759 0L23.0957 37.011H27.3759L29.9943 13.193Z" fill="#0D2DA2"/>
<path d="M3.42415 26.3356L0 28.652C0.772111 30.1962 1.76243 31.6565 2.97095 33.0328C4.21304 34.3756 5.63977 35.4667 7.25113 36.3059C8.89606 37.1116 10.6753 37.5144 12.5888 37.5144C13.9987 37.5144 15.3415 37.2795 16.6172 36.8095C17.9264 36.3395 19.0846 35.6681 20.0917 34.7953C21.1323 33.9225 21.938 32.865 22.5087 31.6229C23.113 30.3808 23.4151 28.9877 23.4151 27.4434C23.4151 25.8321 23.1298 24.4557 22.5591 23.3143C21.9884 22.1394 21.2498 21.149 20.3434 20.3434C19.4706 19.5041 18.5139 18.8159 17.4732 18.2788C16.4325 17.7417 15.4422 17.3053 14.5023 16.9696C12.4545 16.2646 10.8263 15.5596 9.61782 14.8547C8.44287 14.1161 7.60362 13.344 7.10007 12.5383C6.59651 11.6991 6.34474 10.7927 6.34474 9.81915C6.34474 8.67777 6.78115 7.65389 7.65397 6.74749C8.52679 5.80753 9.91995 5.33755 11.8334 5.33755C13.2098 5.33755 14.368 5.60611 15.3079 6.14323C16.2815 6.68035 17.1039 7.36854 17.7753 8.20779C18.4467 9.04704 19.0006 9.90308 19.4371 10.7759L23.113 8.66099C22.5423 7.41889 21.7534 6.24394 20.7463 5.13613C19.7392 3.99475 18.5139 3.07157 17.0704 2.3666C15.6604 1.62806 13.9987 1.25879 12.0852 1.25879C10.1046 1.25879 8.34216 1.66163 6.79793 2.46731C5.25371 3.23942 4.04519 4.31366 3.17237 5.69004C2.29955 7.06641 1.86314 8.62742 1.86314 10.3731C1.86314 11.9844 2.16527 13.344 2.76953 14.4518C3.40736 15.5596 4.21304 16.4996 5.18657 17.2717C6.1601 18.0102 7.18399 18.6313 8.25823 19.1348C9.33247 19.6048 10.306 19.9909 11.1788 20.293C12.5216 20.763 13.7805 21.3001 14.9555 21.9044C16.164 22.4751 17.1375 23.2304 17.8761 24.1703C18.6146 25.1103 18.9839 26.3692 18.9839 27.947C18.9839 29.5583 18.4132 30.8844 17.2718 31.925C16.1304 32.9657 14.6198 33.486 12.7398 33.486C11.3299 33.486 10.071 33.1839 8.9632 32.5796C7.85539 31.9754 6.84829 31.1361 5.9419 30.0619C5.06908 28.9877 4.22983 27.7456 3.42415 26.3356Z" fill="#0D2DA2"/>
<path d="M110.421 64.2866C110.169 64.2866 110.113 64.0907 110.253 63.6991C110.421 63.3354 110.575 62.9997 110.715 62.692C110.967 62.1884 111.093 61.4051 111.093 60.3421C111.093 59.4189 110.925 58.4258 110.589 57.3627C110.253 56.2997 109.596 55.3345 108.617 54.4673C107.274 53.2364 105.763 52.2573 104.085 51.5299C102.406 50.8026 100.644 50.2151 98.7976 49.7675C96.9792 49.3199 95.1748 48.9283 93.3844 48.5926C92.2934 50.1032 91.1184 51.46 89.8595 52.6629C88.6286 53.8659 87.3138 54.789 85.9151 55.4325C85.1318 55.7961 84.3764 56.0619 83.6491 56.2297C82.9217 56.4256 82.2363 56.5235 81.5929 56.5235C80.0263 56.5235 78.7395 56.1039 77.7324 55.2646C76.7532 54.4533 76.2637 53.4882 76.2637 52.3692C76.2637 51.3061 76.7392 50.2711 77.6904 49.264C78.6695 48.2289 80.2781 47.3756 82.5161 46.7042C83.4113 46.4525 84.4044 46.2706 85.4954 46.1587C86.5865 46.0189 87.7195 45.9489 88.8944 45.9489C89.6218 45.9489 90.3351 45.9769 91.0345 46.0328C91.7618 46.0608 92.4332 46.1447 93.0487 46.2846C93.86 45.0537 94.6153 43.7809 95.3147 42.466C96.0141 41.1232 96.7414 39.6685 97.4967 38.1019C95.2867 38.1579 93.3704 37.8362 91.7479 37.1368C90.1253 36.4094 88.8664 35.4443 87.9712 34.2414C87.104 33.0384 86.6704 31.7516 86.6704 30.3808C86.6704 29.2618 86.9921 28.1708 87.6355 27.1077C88.279 26.0167 89.2861 25.0376 90.6568 24.1704C92.0556 23.2751 93.832 22.5758 95.9861 22.0722C96.126 22.0163 96.2518 21.9883 96.3637 21.9883C96.5036 21.9883 96.6295 21.9883 96.7414 21.9883C97.161 21.9883 97.3708 22.0722 97.3708 22.2401C97.3708 22.5198 96.9232 22.7156 96.028 22.8275C94.5733 22.9954 93.2865 23.5129 92.1675 24.3802C91.0765 25.2474 90.2232 26.2825 89.6078 27.4854C89.0203 28.6883 88.7266 29.9052 88.7266 31.1361C88.7266 32.1992 88.9783 33.1923 89.4819 34.1155C89.9854 35.0387 90.7827 35.794 91.8737 36.3815C92.9648 36.941 94.3775 37.2207 96.112 37.2207C96.7274 37.2207 97.3848 37.1787 98.0842 37.0948C98.1961 36.871 98.3779 36.4234 98.6297 35.752C98.9095 35.0526 99.2172 34.2693 99.5529 33.4021C99.8886 32.5349 100.21 31.6956 100.518 30.8844C100.854 30.0731 101.119 29.4017 101.315 28.8702C101.539 28.3107 101.651 28.0309 101.651 28.0309C102.938 24.8138 104.253 22.296 105.596 20.4776C106.966 18.6313 108.281 17.3305 109.54 16.5751C110.827 15.8198 111.974 15.4421 112.981 15.4421C114.072 15.4421 114.967 15.7639 115.667 16.4073C116.394 17.0507 116.786 17.7781 116.841 18.5893C116.869 18.8411 116.883 19.0229 116.883 19.1348C116.883 19.2467 116.883 19.3866 116.883 19.5545C116.883 21.205 116.548 22.8555 115.876 24.5061C115.233 26.1566 114.324 27.7232 113.149 29.2059C112.002 30.6885 110.673 32.0313 109.162 33.2343C107.68 34.4372 106.085 35.4443 104.379 36.2556C102.7 37.0668 100.994 37.6263 99.2592 37.9341C98.8395 38.7733 98.4619 39.5287 98.1262 40.2001C97.8184 40.8435 97.4688 41.5429 97.0771 42.2982C96.6855 43.0535 96.1679 44.0186 95.5245 45.1936C95.3287 45.5573 95.1748 45.823 95.0629 45.9909C94.979 46.1308 94.8391 46.3546 94.6433 46.6623C96.042 46.998 97.5667 47.4736 99.2172 48.089C100.868 48.6765 102.49 49.3899 104.085 50.2291C105.707 51.0404 107.148 51.9356 108.407 52.9147C109.974 54.1176 111.079 55.4744 111.722 56.9851C112.393 58.4957 112.729 59.8245 112.729 60.9715C112.729 61.7828 112.603 62.3982 112.351 62.8179C111.988 63.4333 111.624 63.825 111.26 63.9928C110.897 64.1886 110.617 64.2866 110.421 64.2866ZM99.8466 36.8011C101.749 36.3815 103.609 35.6261 105.428 34.5351C107.246 33.4161 108.883 32.0733 110.337 30.5067C111.792 28.9121 112.953 27.1917 113.82 25.3453C114.687 23.471 115.121 21.5687 115.121 19.6384C115.121 19.1628 114.995 18.7712 114.743 18.4634C114.492 18.1557 114.128 18.0019 113.652 18.0019C113.009 18.0019 112.184 18.3655 111.177 19.0929C110.169 19.7923 109.022 20.9812 107.736 22.6597C106.449 24.3102 105.064 26.5902 103.581 29.4996C103.581 29.4996 103.385 29.8633 102.994 30.5906C102.63 31.318 102.155 32.2412 101.567 33.3602C101.008 34.4512 100.434 35.5982 99.8466 36.8011ZM81.0054 55.3066C81.6209 55.3066 82.2783 55.2226 82.9777 55.0548C83.705 54.8869 84.4604 54.6212 85.2437 54.2575C87.5936 53.1105 89.7616 51.1243 91.7479 48.2988C91.1044 48.159 90.433 48.061 89.7337 48.0051C89.0343 47.9212 88.3209 47.8792 87.5936 47.8792C86.8382 47.8792 86.0549 47.9212 85.2437 48.0051C84.4604 48.089 83.691 48.2429 82.9357 48.4667C81.0614 48.9702 79.6207 49.6137 78.6136 50.397C77.6344 51.1803 77.1449 51.9775 77.1449 52.7888C77.1449 53.4882 77.4946 54.0757 78.1939 54.5512C78.8933 55.0548 79.8305 55.3066 81.0054 55.3066Z" fill="#FF7E00"/>
<path d="M117.925 51.7398C117.617 51.7677 117.268 51.6978 116.876 51.5299C116.484 51.3621 116.135 51.0544 115.827 50.6068C115.547 50.1592 115.407 49.5297 115.407 48.7185C115.407 48.0471 115.533 47.2358 115.785 46.2846C115.449 46.8161 115.016 47.4736 114.484 48.2569C113.952 49.0122 113.379 49.6836 112.764 50.2711C112.232 50.7746 111.728 51.1383 111.253 51.3621C110.777 51.5859 110.344 51.6978 109.952 51.6978C109.225 51.6978 108.637 51.3761 108.19 50.7327C107.742 50.0613 107.518 49.194 107.518 48.131C107.518 47.012 107.798 45.7391 108.357 44.3124C108.917 42.8857 109.826 41.403 111.085 39.8644C111.896 38.8852 112.875 38.1019 114.022 37.5144C115.197 36.899 116.344 36.5913 117.463 36.5913C118.107 36.5913 118.722 36.7032 119.31 36.927C119.897 37.1228 120.415 37.4585 120.862 37.9341C121.058 38.1299 121.156 38.3537 121.156 38.6055C121.156 38.7733 121.086 38.9132 120.946 39.0251C120.806 39.137 120.625 39.165 120.401 39.109C120.093 38.1299 119.436 37.6403 118.429 37.6403C117.953 37.6403 117.407 37.7942 116.792 38.1019C115.841 38.6055 114.848 39.4307 113.813 40.5777C112.806 41.7247 111.924 42.9136 111.169 44.1445C111.057 44.3124 110.875 44.6341 110.623 45.1097C110.4 45.5852 110.176 46.1168 109.952 46.7042C109.728 47.2917 109.574 47.8652 109.49 48.4247C109.463 48.5926 109.449 48.7185 109.449 48.8024C109.449 48.8583 109.449 48.9562 109.449 49.0961C109.449 50.0193 109.798 50.4809 110.498 50.4809C111.337 50.4809 112.288 49.8654 113.351 48.6345C114.078 47.7393 114.736 46.8022 115.323 45.823C115.911 44.8439 116.512 43.7948 117.128 42.6758C117.547 41.9205 117.939 41.2911 118.303 40.7875C118.666 40.284 119.184 40.0322 119.855 40.0322C120.163 40.0322 120.471 40.0742 120.778 40.1581C121.086 40.242 121.408 40.256 121.744 40.2001C121.52 40.4239 121.212 40.8435 120.82 41.4589C120.457 42.0744 120.065 42.7738 119.645 43.5571C119.226 44.3404 118.848 45.1376 118.512 45.9489C118.177 46.7602 117.939 47.4596 117.799 48.0471C117.771 48.2149 117.729 48.4527 117.673 48.7604C117.645 49.0681 117.631 49.2919 117.631 49.4318C117.631 50.2151 117.855 50.6068 118.303 50.6068C118.75 50.6068 119.226 50.341 119.729 49.8095C120.261 49.278 120.778 48.6205 121.282 47.8372C121.786 47.0539 122.247 46.2706 122.667 45.4873C123.086 44.6761 123.422 44.0186 123.674 43.5151C123.786 43.2353 123.954 43.0955 124.177 43.0955C124.317 43.0955 124.387 43.1934 124.387 43.3892C124.387 43.4731 124.345 43.627 124.261 43.8508C123.926 44.5502 123.52 45.3475 123.044 46.2427C122.569 47.1099 122.051 47.9631 121.492 48.8024C120.932 49.6137 120.345 50.299 119.729 50.8585C119.142 51.3901 118.54 51.6838 117.925 51.7398Z" fill="#FF7E00"/>
<path d="M132.887 51.6139C132.132 51.6139 131.502 51.2362 130.999 50.4809C130.859 50.2571 130.733 49.9633 130.621 49.5997C130.509 49.236 130.453 48.8304 130.453 48.3828C130.453 48.131 130.467 47.8792 130.495 47.6274C130.523 47.3477 130.579 47.0679 130.663 46.7882C130.272 47.4036 129.81 48.089 129.278 48.8443C128.775 49.5717 128.187 50.2151 127.516 50.7746C126.873 51.3061 126.145 51.5719 125.334 51.5719C125.054 51.5719 124.76 51.5299 124.453 51.446C123.697 51.2222 123.152 50.8306 122.816 50.2711C122.508 49.7116 122.355 49.0402 122.355 48.2569C122.355 47.3896 122.522 46.4385 122.858 45.4034C123.222 44.3683 123.669 43.3612 124.201 42.3821C124.76 41.403 125.334 40.5637 125.921 39.8644C126.761 38.8852 127.726 38.1019 128.817 37.5144C129.908 36.927 131.013 36.6332 132.132 36.6332C133.139 36.6332 134.09 36.899 134.985 37.4305C135.405 36.6472 135.853 35.78 136.328 34.8288C136.804 33.8497 137.279 32.8846 137.755 31.9334C138.23 30.9823 138.65 30.115 139.014 29.3317C139.377 28.5205 139.657 27.905 139.853 27.4854C140.273 26.5063 140.664 25.8908 141.028 25.639C141.42 25.3593 141.881 25.2194 142.413 25.2194C142.72 25.2194 143.056 25.2614 143.42 25.3453C143.811 25.4013 144.189 25.4152 144.553 25.3873C144.385 25.5551 144.035 26.0447 143.504 26.856C143 27.6393 142.399 28.6464 141.699 29.8773C141 31.1082 140.245 32.465 139.433 33.9476C138.65 35.4023 137.867 36.885 137.083 38.3957C136.328 39.8783 135.615 41.2911 134.943 42.6339C134.3 43.9487 133.782 45.0817 133.391 46.0328C133.279 46.2566 133.111 46.7182 132.887 47.4176C132.691 48.089 132.593 48.6765 132.593 49.18C132.593 49.5437 132.677 49.8654 132.845 50.1452C133.013 50.397 133.293 50.5228 133.685 50.5228C134.216 50.5228 134.748 50.2571 135.279 49.7256C135.839 49.1661 136.37 48.4947 136.874 47.7114C137.377 46.9001 137.825 46.1168 138.216 45.3614C138.608 44.5781 138.902 43.9627 139.098 43.5151C139.238 43.2074 139.405 43.0535 139.601 43.0535C139.769 43.0535 139.853 43.1794 139.853 43.4312C139.853 43.4591 139.853 43.5151 139.853 43.599C139.853 43.655 139.825 43.7249 139.769 43.8088C139.517 44.3963 139.168 45.1237 138.72 45.9909C138.3 46.8581 137.797 47.7253 137.209 48.5926C136.622 49.4598 135.964 50.1871 135.237 50.7746C134.51 51.3341 133.726 51.6139 132.887 51.6139ZM125.628 50.355C126.019 50.355 126.509 50.1452 127.096 49.7256C127.684 49.278 128.313 48.5786 128.985 47.6274C129.768 46.5084 130.663 45.1097 131.67 43.4312C132.677 41.7527 133.671 39.9762 134.65 38.1019C134.286 37.7662 133.866 37.5984 133.391 37.5984C132.607 37.5984 131.726 37.962 130.747 38.6894C129.796 39.4167 128.859 40.3399 127.936 41.4589C127.04 42.5779 126.285 43.7109 125.67 44.8579C125.25 45.6412 124.942 46.3546 124.746 46.998C124.579 47.6414 124.495 48.2009 124.495 48.6765C124.495 49.7955 124.872 50.355 125.628 50.355Z" fill="#FF7E00"/>
<path d="M133.439 64.9999C131.984 64.9999 130.949 64.7062 130.333 64.1187C129.718 63.5592 129.41 62.8878 129.41 62.1045C129.41 61.6849 129.466 61.3212 129.578 61.0135C129.69 60.7058 129.858 60.3141 130.082 59.8385C130.473 59.0273 131.019 58.3279 131.718 57.7404C132.418 57.1529 133.173 56.6774 133.984 56.3137C135.439 55.6423 137.089 55.0968 138.936 54.6771C140.81 54.2575 142.6 53.7959 144.307 53.2924C144.838 52.3692 145.328 51.3201 145.776 50.1452C146.223 48.9423 146.629 47.7813 146.993 46.6623C147.356 45.5153 147.65 44.5781 147.874 43.8508C147.538 44.4662 147.104 45.2216 146.573 46.1168C146.069 46.984 145.496 47.8372 144.852 48.6765C144.209 49.5157 143.51 50.2151 142.754 50.7746C142.027 51.3341 141.258 51.6139 140.446 51.6139C140.139 51.6139 139.761 51.5439 139.313 51.4041C138.894 51.2642 138.516 51.0124 138.18 50.6487C137.873 50.2571 137.719 49.6836 137.719 48.9283C137.719 48.2009 137.887 47.5015 138.222 46.8301C138.586 46.1308 138.922 45.4594 139.229 44.8159C139.146 44.8159 139.048 44.788 138.936 44.732C138.852 44.6761 138.81 44.5921 138.81 44.4802C138.81 44.3683 138.838 44.2564 138.894 44.1445C139.006 43.9207 139.132 43.6829 139.271 43.4312C139.411 43.1794 139.537 42.9136 139.649 42.6339C140.069 41.7667 140.488 40.9414 140.908 40.1581C141.328 39.3468 141.691 38.6334 141.999 38.018C142.307 37.4025 142.838 37.0948 143.594 37.0948H146.195C145.999 37.2627 145.748 37.4585 145.44 37.6823C145.16 37.8781 144.894 38.1858 144.643 38.6055C143.887 39.8923 143.23 41.1372 142.67 42.3401C142.111 43.5151 141.509 44.774 140.866 46.1168C140.558 46.7602 140.334 47.3477 140.195 47.8792C140.055 48.4107 139.985 48.8723 139.985 49.264C139.985 50.1871 140.293 50.6487 140.908 50.6487C141.579 50.6487 142.391 50.1032 143.342 49.0122C144.125 48.089 144.908 46.998 145.692 45.7391C146.503 44.4523 147.272 43.1374 148 41.7946C148.755 40.4239 149.412 39.165 149.972 38.018C150.28 37.4025 150.825 37.0948 151.608 37.0948H153.916C153.105 37.6543 152.476 38.3817 152.028 39.2769C151.608 40.1721 151.133 41.3191 150.601 42.7178C150.014 44.2564 149.454 45.851 148.923 47.5015C148.419 49.1241 147.846 50.7606 147.202 52.4112C148.126 52.1034 149.161 51.6279 150.308 50.9844C151.483 50.341 152.476 49.4178 153.287 48.2149C153.93 47.2637 154.476 46.3546 154.923 45.4873C155.399 44.5921 155.735 43.9487 155.931 43.5571C156.042 43.2773 156.196 43.1374 156.392 43.1374C156.588 43.1374 156.686 43.2633 156.686 43.5151C156.686 43.655 156.644 43.8088 156.56 43.9767C155.833 45.4314 155.175 46.6623 154.588 47.6694C154.028 48.6485 153.399 49.5018 152.699 50.2291C152.028 50.9285 151.203 51.5439 150.224 52.0755C149.245 52.635 148 53.1945 146.489 53.754C145.818 54.9569 145.048 56.2018 144.181 57.4886C143.342 58.8035 142.377 60.0204 141.286 61.1394C140.223 62.2863 139.034 63.2095 137.719 63.9089C136.432 64.6362 135.005 64.9999 133.439 64.9999ZM132.432 64.1607C133.355 64.1607 134.306 63.8809 135.285 63.3214C136.264 62.7619 137.215 62.0486 138.138 61.1813C139.062 60.3421 139.901 59.4749 140.656 58.5797C141.44 57.7124 142.069 56.9431 142.545 56.2717C142.684 56.0759 142.838 55.8241 143.006 55.5164C143.174 55.2087 143.342 54.9149 143.51 54.6352C142.139 54.9988 140.628 55.3905 138.978 55.8101C137.355 56.2577 135.942 56.7473 134.739 57.2788C133.397 57.8383 132.348 58.6356 131.592 59.6707C130.809 60.7058 130.417 61.6289 130.417 62.4402C130.417 62.9438 130.585 63.3494 130.921 63.6571C131.229 63.9928 131.732 64.1607 132.432 64.1607Z" fill="#FF7E00"/>
<path d="M108.449 33.8219L108.029 34.0949V32.7309V32.647L108.701 31.9756L109.288 31.5559L109.96 30.8845L110.547 30.1292L111.302 29.3739L111.806 28.7025L112.309 28.0105V30.2131L112.058 30.5488L111.302 31.3881L110.379 32.2273L109.372 33.0666L108.785 33.5701L108.449 33.8219Z" fill="#0D2DA2"/>
</svg>
